<svg width="141" height="170" viewBox="0 0 141 170" fill="none" xmlns="http://www.w3.org/2000/svg">
<path d="M57.2862 88.7933C61.4074 92.9144 66.4116 94.975 72.2989 94.975C78.1863 94.975 83.1905 92.9144 87.3116 88.7933C91.4328 84.6721 93.4933 79.6679 93.4933 73.7806C93.4933 67.8933 91.4328 62.889 87.3116 58.7679C83.1905 54.6468 78.1863 52.5862 72.2989 52.5862C66.4116 52.5862 61.4074 54.6468 57.2862 58.7679C53.1651 62.889 51.1046 67.8933 51.1046 73.7806C51.1046 79.6679 53.1651 84.6721 57.2862 88.7933ZM100.558 94.975L123.96 118.377L116.895 125.442L93.4933 102.04V98.2866L92.1687 96.9619C86.5757 101.819 79.9525 104.248 72.2989 104.248C63.7623 104.248 56.4767 101.304 50.4422 95.4165C44.5549 89.5292 41.6112 82.3172 41.6112 73.7806C41.6112 65.244 44.5549 58.032 50.4422 52.1447C56.4767 46.1101 63.7623 43.0929 72.2989 43.0929C80.8356 43.0929 88.0475 46.1101 93.9349 52.1447C99.8222 58.032 102.766 65.244 102.766 73.7806C102.766 76.8714 102.03 80.4038 100.558 84.3778C99.0863 88.2045 97.3937 91.2954 95.4803 93.6503L96.8049 94.975H100.558Z" fill="#B9FF25"/>
<path d="M26.4315 35.2398C26.7915 34.42 27.9648 34.4502 28.2822 35.2874L29.3559 38.1199C29.4483 38.3636 29.6322 38.5616 29.8684 38.6718L33.4933 40.362C34.3141 40.7447 34.2441 41.9341 33.3842 42.2179L29.9729 43.3439C29.6751 43.4422 29.4406 43.6745 29.3396 43.9714L28.263 47.1359C27.9606 48.0245 26.7112 48.0446 26.3804 47.1661L25.163 43.933C25.0596 43.6583 24.8407 43.4429 24.5644 43.344L21.2662 42.1623C20.4285 41.8622 20.3705 40.6995 21.1743 40.3177L24.6634 38.6599C24.8805 38.5568 25.0532 38.3789 25.1498 38.1587L26.4315 35.2398Z" fill="#B9FF25"/>
<path d="M21.7254 56.24C22.0854 55.4201 23.2587 55.4503 23.5761 56.2875L24.2272 58.0051C24.3196 58.2488 24.5035 58.4468 24.7397 58.5569L27.0919 59.6537C27.9126 60.0364 27.8427 61.2258 26.9827 61.5096L24.8442 62.2155C24.5464 62.3138 24.3119 62.5461 24.2109 62.843L23.5673 64.7348C23.2649 65.6234 22.0155 65.6435 21.6847 64.7651L20.9465 62.8046C20.8431 62.5299 20.6243 62.3146 20.348 62.2156L18.2659 61.4696C17.4282 61.1695 17.3703 60.0069 18.174 59.625L20.4469 58.5451C20.664 58.442 20.8367 58.264 20.9333 58.0439L21.7254 56.24Z" fill="#B9FF25"/>
<path d="M11.3817 38.24C11.7417 37.4201 12.915 37.4503 13.2324 38.2875L15.2849 43.7021C15.3773 43.9458 15.5612 44.1438 15.7974 44.2539L22.3698 47.3185C23.1906 47.7012 23.1206 48.8906 22.2607 49.1745L15.9019 51.2733C15.604 51.3716 15.3696 51.604 15.2686 51.9009L13.1892 58.0126C12.8869 58.9012 11.6374 58.9213 11.3066 58.0429L8.97948 51.8624C8.87606 51.5877 8.6572 51.3724 8.3809 51.2734L2.26608 49.0827C1.42836 48.7825 1.37045 47.6199 2.17421 47.238L8.47981 44.2421C8.69694 44.1389 8.86964 43.961 8.96629 43.7409L11.3817 38.24Z" fill="#B9FF25"/>
</svg>
